<svg xmlns="http://www.w3.org/2000/svg" viewBox="0 0 32 32" fill="none">
  <circle cx="16" cy="16" r="16" fill="#8247E5"/>
  <path d="M21 13.2c-.4-.2-.9-.2-1.3 0l-3 1.7-2 1.2-3 1.7c-.4.2-.9.2-1.3 0l-2.4-1.4c-.4-.2-.6-.7-.6-1.1v-2.7c0-.5.2-.9.6-1.1l2.3-1.3c.4-.2.9-.2 1.3 0l2.3 1.3c.4.2.6.7.6 1.1v1.7l2-1.2v-1.7c0-.5-.2-.9-.6-1.1l-4.3-2.5c-.4-.2-.9-.2-1.3 0l-4.4 2.5c-.4.2-.6.7-.6 1.1v5c0 .5.2.9.6 1.1l4.3 2.5c.4.2.9.2 1.3 0l3-1.7 2-1.2 3-1.7c.4-.2.9-.2 1.3 0l2.3 1.3c.4.2.6.7.6 1.1v2.7c0 .5-.2.9-.6 1.1l-2.3 1.4c-.4.2-.9.2-1.3 0l-2.3-1.4c-.4-.2-.6-.7-.6-1.1v-1.7l-2 1.2v1.7c0 .5.2.9.6 1.1l4.3 2.5c.4.2.9.2 1.3 0l4.3-2.5c.4-.2.6-.7.6-1.1v-5c0-.5-.2-.9-.6-1.1L21 13.2z" fill="#fff"/>
</svg>
